<mxfile host="app.diagrams.net" modified="2023-10-02T07:20:10.290Z" agent="Mozilla/5.0 (Windows NT 10.0; Win64; x64) AppleWebKit/537.36 (KHTML, like Gecko) Chrome/117.0.0.0 Safari/537.36" etag="Z2biIo7Z3-GXubT4AvSb" version="22.0.0" type="device">
  <diagram name="Page-1" id="TVg-fwNYKUcIh1Ox42Tr">
    <mxGraphModel dx="1290" dy="534" grid="1" gridSize="10" guides="1" tooltips="1" connect="1" arrows="1" fold="1" page="1" pageScale="1" pageWidth="850" pageHeight="1100" math="0" shadow="0">
      <root>
        <mxCell id="0" />
        <mxCell id="1" parent="0" />
        <mxCell id="CbRo_4syWJtFBAek20d4-1" value="Users" style="shape=umlActor;verticalLabelPosition=bottom;verticalAlign=top;html=1;" parent="1" vertex="1">
          <mxGeometry x="60" y="430" width="30" height="60" as="geometry" />
        </mxCell>
        <mxCell id="CbRo_4syWJtFBAek20d4-4" value="General users&lt;br&gt;(Students)" style="shape=umlActor;verticalLabelPosition=bottom;verticalAlign=top;html=1;" parent="1" vertex="1">
          <mxGeometry x="180" y="290" width="30" height="60" as="geometry" />
        </mxCell>
        <mxCell id="CbRo_4syWJtFBAek20d4-7" value="Faculty" style="shape=umlActor;verticalLabelPosition=bottom;verticalAlign=top;html=1;" parent="1" vertex="1">
          <mxGeometry x="180" y="430" width="30" height="60" as="geometry" />
        </mxCell>
        <mxCell id="CbRo_4syWJtFBAek20d4-8" value="Admin" style="shape=umlActor;verticalLabelPosition=bottom;verticalAlign=top;html=1;" parent="1" vertex="1">
          <mxGeometry x="180" y="570" width="30" height="60" as="geometry" />
        </mxCell>
        <mxCell id="CbRo_4syWJtFBAek20d4-9" value="Search" style="ellipse;whiteSpace=wrap;html=1;" parent="1" vertex="1">
          <mxGeometry x="340" y="350" width="70" height="40" as="geometry" />
        </mxCell>
        <mxCell id="CbRo_4syWJtFBAek20d4-12" value="Apply filters" style="ellipse;whiteSpace=wrap;html=1;" parent="1" vertex="1">
          <mxGeometry x="530" y="320" width="70" height="40" as="geometry" />
        </mxCell>
        <mxCell id="CbRo_4syWJtFBAek20d4-13" value="Check Profile" style="ellipse;whiteSpace=wrap;html=1;" parent="1" vertex="1">
          <mxGeometry x="430" y="260" width="70" height="40" as="geometry" />
        </mxCell>
        <mxCell id="CbRo_4syWJtFBAek20d4-15" value="&amp;lt;&amp;lt;extends&amp;gt;&amp;gt;" style="html=1;verticalAlign=bottom;endArrow=open;dashed=1;endSize=8;curved=0;rounded=0;exitX=0.5;exitY=1;exitDx=0;exitDy=0;entryX=0.5;entryY=0;entryDx=0;entryDy=0;" parent="1" source="CbRo_4syWJtFBAek20d4-13" target="CbRo_4syWJtFBAek20d4-9" edge="1">
          <mxGeometry relative="1" as="geometry">
            <mxPoint x="410" y="360" as="sourcePoint" />
            <mxPoint x="330" y="360" as="targetPoint" />
          </mxGeometry>
        </mxCell>
        <mxCell id="CbRo_4syWJtFBAek20d4-16" value="&amp;lt;&amp;lt;extends&amp;gt;&amp;gt;" style="html=1;verticalAlign=bottom;endArrow=open;dashed=1;endSize=8;curved=0;rounded=0;exitX=0;exitY=1;exitDx=0;exitDy=0;entryX=1;entryY=0.5;entryDx=0;entryDy=0;" parent="1" source="CbRo_4syWJtFBAek20d4-12" target="CbRo_4syWJtFBAek20d4-9" edge="1">
          <mxGeometry relative="1" as="geometry">
            <mxPoint x="405" y="300" as="sourcePoint" />
            <mxPoint x="385" y="360" as="targetPoint" />
          </mxGeometry>
        </mxCell>
        <mxCell id="CbRo_4syWJtFBAek20d4-17" value="Sign-in" style="ellipse;whiteSpace=wrap;html=1;" parent="1" vertex="1">
          <mxGeometry x="330" y="480" width="70" height="40" as="geometry" />
        </mxCell>
        <mxCell id="CbRo_4syWJtFBAek20d4-18" value="Sign-out" style="ellipse;whiteSpace=wrap;html=1;" parent="1" vertex="1">
          <mxGeometry x="330" y="580" width="70" height="40" as="geometry" />
        </mxCell>
        <mxCell id="CbRo_4syWJtFBAek20d4-19" value="Profile" style="ellipse;whiteSpace=wrap;html=1;" parent="1" vertex="1">
          <mxGeometry x="470" y="410" width="70" height="40" as="geometry" />
        </mxCell>
        <mxCell id="CbRo_4syWJtFBAek20d4-20" value="Edit" style="ellipse;whiteSpace=wrap;html=1;" parent="1" vertex="1">
          <mxGeometry x="640" y="360" width="70" height="40" as="geometry" />
        </mxCell>
        <mxCell id="CbRo_4syWJtFBAek20d4-21" value="Delete" style="ellipse;whiteSpace=wrap;html=1;" parent="1" vertex="1">
          <mxGeometry x="640" y="460" width="70" height="40" as="geometry" />
        </mxCell>
        <mxCell id="CbRo_4syWJtFBAek20d4-22" value="&amp;lt;&amp;lt;extends&amp;gt;&amp;gt;" style="html=1;verticalAlign=bottom;endArrow=open;dashed=1;endSize=8;curved=0;rounded=0;exitX=0;exitY=1;exitDx=0;exitDy=0;entryX=1;entryY=0;entryDx=0;entryDy=0;" parent="1" source="CbRo_4syWJtFBAek20d4-20" target="CbRo_4syWJtFBAek20d4-19" edge="1">
          <mxGeometry x="0.0339" y="11" relative="1" as="geometry">
            <mxPoint x="441" y="194" as="sourcePoint" />
            <mxPoint x="390" y="230" as="targetPoint" />
            <mxPoint as="offset" />
          </mxGeometry>
        </mxCell>
        <mxCell id="CbRo_4syWJtFBAek20d4-23" value="&amp;lt;&amp;lt;extends&amp;gt;&amp;gt;" style="html=1;verticalAlign=bottom;endArrow=open;dashed=1;endSize=8;curved=0;rounded=0;exitX=0;exitY=0.5;exitDx=0;exitDy=0;entryX=1;entryY=1;entryDx=0;entryDy=0;" parent="1" source="CbRo_4syWJtFBAek20d4-21" target="CbRo_4syWJtFBAek20d4-19" edge="1">
          <mxGeometry x="-0.1234" y="9" relative="1" as="geometry">
            <mxPoint x="451" y="204" as="sourcePoint" />
            <mxPoint x="400" y="240" as="targetPoint" />
            <mxPoint as="offset" />
          </mxGeometry>
        </mxCell>
        <mxCell id="CbRo_4syWJtFBAek20d4-24" value="&amp;lt;&amp;lt;include&amp;gt;&amp;gt;" style="html=1;verticalAlign=bottom;endArrow=open;dashed=1;endSize=8;curved=0;rounded=0;exitX=0;exitY=1;exitDx=0;exitDy=0;entryX=1;entryY=0;entryDx=0;entryDy=0;" parent="1" source="CbRo_4syWJtFBAek20d4-19" target="CbRo_4syWJtFBAek20d4-17" edge="1">
          <mxGeometry relative="1" as="geometry">
            <mxPoint x="461" y="214" as="sourcePoint" />
            <mxPoint x="410" y="250" as="targetPoint" />
          </mxGeometry>
        </mxCell>
        <mxCell id="CbRo_4syWJtFBAek20d4-25" value="&amp;lt;&amp;lt;include&amp;gt;&amp;gt;" style="html=1;verticalAlign=bottom;endArrow=open;dashed=1;endSize=8;curved=0;rounded=0;exitX=0.5;exitY=0;exitDx=0;exitDy=0;entryX=0.5;entryY=1;entryDx=0;entryDy=0;" parent="1" source="CbRo_4syWJtFBAek20d4-18" target="CbRo_4syWJtFBAek20d4-17" edge="1">
          <mxGeometry relative="1" as="geometry">
            <mxPoint x="471" y="224" as="sourcePoint" />
            <mxPoint x="420" y="260" as="targetPoint" />
          </mxGeometry>
        </mxCell>
        <mxCell id="CbRo_4syWJtFBAek20d4-26" value="Add College&lt;br&gt;(Admin Only)" style="ellipse;whiteSpace=wrap;html=1;" parent="1" vertex="1">
          <mxGeometry x="460" y="530" width="110" height="60" as="geometry" />
        </mxCell>
        <mxCell id="CbRo_4syWJtFBAek20d4-27" value="&amp;lt;&amp;lt;include&amp;gt;&amp;gt;" style="html=1;verticalAlign=bottom;endArrow=open;dashed=1;endSize=8;curved=0;rounded=0;exitX=0;exitY=0;exitDx=0;exitDy=0;entryX=1;entryY=1;entryDx=0;entryDy=0;" parent="1" source="CbRo_4syWJtFBAek20d4-26" target="CbRo_4syWJtFBAek20d4-17" edge="1">
          <mxGeometry x="-0.2355" y="11" relative="1" as="geometry">
            <mxPoint x="476.0680812928442" y="538.8092088049658" as="sourcePoint" />
            <mxPoint x="389.5638229641336" y="514.2470173191974" as="targetPoint" />
            <mxPoint as="offset" />
          </mxGeometry>
        </mxCell>
        <mxCell id="CbRo_4syWJtFBAek20d4-28" value="Remove&lt;br&gt;College" style="ellipse;whiteSpace=wrap;html=1;" parent="1" vertex="1">
          <mxGeometry x="650" y="560" width="90" height="40" as="geometry" />
        </mxCell>
        <mxCell id="CbRo_4syWJtFBAek20d4-30" value="&amp;lt;&amp;lt;include&amp;gt;&amp;gt;" style="html=1;verticalAlign=bottom;endArrow=open;dashed=1;endSize=8;curved=0;rounded=0;exitX=0;exitY=0.5;exitDx=0;exitDy=0;entryX=1;entryY=0.5;entryDx=0;entryDy=0;" parent="1" source="CbRo_4syWJtFBAek20d4-28" target="CbRo_4syWJtFBAek20d4-26" edge="1">
          <mxGeometry x="-0.0588" y="10" relative="1" as="geometry">
            <mxPoint x="580" y="510" as="sourcePoint" />
            <mxPoint x="540" y="454" as="targetPoint" />
            <mxPoint as="offset" />
          </mxGeometry>
        </mxCell>
        <mxCell id="CbRo_4syWJtFBAek20d4-31" value="&amp;lt;&amp;lt;include&amp;gt;&amp;gt;" style="html=1;verticalAlign=bottom;endArrow=open;dashed=1;endSize=8;curved=0;rounded=0;exitX=0;exitY=0;exitDx=0;exitDy=0;entryX=1;entryY=1;entryDx=0;entryDy=0;" parent="1" source="CbRo_4syWJtFBAek20d4-32" target="CbRo_4syWJtFBAek20d4-26" edge="1">
          <mxGeometry x="-0.0588" y="10" relative="1" as="geometry">
            <mxPoint x="585" y="620" as="sourcePoint" />
            <mxPoint x="580" y="570" as="targetPoint" />
            <mxPoint as="offset" />
          </mxGeometry>
        </mxCell>
        <mxCell id="CbRo_4syWJtFBAek20d4-32" value="Add/Remove&lt;br&gt;Faculty" style="ellipse;whiteSpace=wrap;html=1;" parent="1" vertex="1">
          <mxGeometry x="580" y="620" width="90" height="40" as="geometry" />
        </mxCell>
        <mxCell id="CbRo_4syWJtFBAek20d4-33" value="" style="endArrow=none;html=1;rounded=0;entryX=0.5;entryY=1;entryDx=0;entryDy=0;exitX=0.5;exitY=0;exitDx=0;exitDy=0;" parent="1" source="CbRo_4syWJtFBAek20d4-17" target="CbRo_4syWJtFBAek20d4-9" edge="1">
          <mxGeometry width="50" height="50" relative="1" as="geometry">
            <mxPoint x="380" y="470" as="sourcePoint" />
            <mxPoint x="430" y="420" as="targetPoint" />
          </mxGeometry>
        </mxCell>
        <mxCell id="CbRo_4syWJtFBAek20d4-34" value="" style="endArrow=none;html=1;rounded=0;entryX=0;entryY=0.5;entryDx=0;entryDy=0;exitX=1;exitY=0.3333333333333333;exitDx=0;exitDy=0;exitPerimeter=0;" parent="1" source="CbRo_4syWJtFBAek20d4-4" target="CbRo_4syWJtFBAek20d4-9" edge="1">
          <mxGeometry width="50" height="50" relative="1" as="geometry">
            <mxPoint x="375" y="490" as="sourcePoint" />
            <mxPoint x="385" y="400" as="targetPoint" />
          </mxGeometry>
        </mxCell>
        <mxCell id="CbRo_4syWJtFBAek20d4-35" value="" style="endArrow=none;html=1;rounded=0;entryX=1;entryY=0.3333333333333333;entryDx=0;entryDy=0;exitX=0;exitY=0.5;exitDx=0;exitDy=0;entryPerimeter=0;" parent="1" source="CbRo_4syWJtFBAek20d4-9" target="CbRo_4syWJtFBAek20d4-7" edge="1">
          <mxGeometry width="50" height="50" relative="1" as="geometry">
            <mxPoint x="385" y="500" as="sourcePoint" />
            <mxPoint x="395" y="410" as="targetPoint" />
          </mxGeometry>
        </mxCell>
        <mxCell id="CbRo_4syWJtFBAek20d4-36" value="" style="endArrow=none;html=1;rounded=0;entryX=1;entryY=0.3333333333333333;entryDx=0;entryDy=0;exitX=0;exitY=0.5;exitDx=0;exitDy=0;entryPerimeter=0;" parent="1" source="CbRo_4syWJtFBAek20d4-9" target="CbRo_4syWJtFBAek20d4-8" edge="1">
          <mxGeometry width="50" height="50" relative="1" as="geometry">
            <mxPoint x="395" y="510" as="sourcePoint" />
            <mxPoint x="405" y="420" as="targetPoint" />
          </mxGeometry>
        </mxCell>
        <mxCell id="CbRo_4syWJtFBAek20d4-37" value="" style="endArrow=none;html=1;rounded=0;entryX=1;entryY=0.3333333333333333;entryDx=0;entryDy=0;exitX=0;exitY=0.5;exitDx=0;exitDy=0;entryPerimeter=0;" parent="1" source="CbRo_4syWJtFBAek20d4-17" target="CbRo_4syWJtFBAek20d4-7" edge="1">
          <mxGeometry width="50" height="50" relative="1" as="geometry">
            <mxPoint x="405" y="520" as="sourcePoint" />
            <mxPoint x="415" y="430" as="targetPoint" />
          </mxGeometry>
        </mxCell>
        <mxCell id="CbRo_4syWJtFBAek20d4-38" value="" style="endArrow=none;html=1;rounded=0;entryX=1;entryY=0.3333333333333333;entryDx=0;entryDy=0;exitX=0;exitY=0.5;exitDx=0;exitDy=0;entryPerimeter=0;" parent="1" source="CbRo_4syWJtFBAek20d4-17" target="CbRo_4syWJtFBAek20d4-8" edge="1">
          <mxGeometry width="50" height="50" relative="1" as="geometry">
            <mxPoint x="415" y="530" as="sourcePoint" />
            <mxPoint x="425" y="440" as="targetPoint" />
          </mxGeometry>
        </mxCell>
        <mxCell id="CbRo_4syWJtFBAek20d4-39" value="" style="endArrow=classic;html=1;rounded=0;" parent="1" edge="1">
          <mxGeometry width="50" height="50" relative="1" as="geometry">
            <mxPoint x="180" y="320" as="sourcePoint" />
            <mxPoint x="100" y="420" as="targetPoint" />
          </mxGeometry>
        </mxCell>
        <mxCell id="CbRo_4syWJtFBAek20d4-40" value="" style="endArrow=classic;html=1;rounded=0;" parent="1" edge="1">
          <mxGeometry width="50" height="50" relative="1" as="geometry">
            <mxPoint x="170" y="450" as="sourcePoint" />
            <mxPoint x="100" y="450" as="targetPoint" />
          </mxGeometry>
        </mxCell>
        <mxCell id="CbRo_4syWJtFBAek20d4-41" value="" style="endArrow=classic;html=1;rounded=0;" parent="1" edge="1">
          <mxGeometry width="50" height="50" relative="1" as="geometry">
            <mxPoint x="170" y="590" as="sourcePoint" />
            <mxPoint x="100" y="480" as="targetPoint" />
          </mxGeometry>
        </mxCell>
        <mxCell id="CbRo_4syWJtFBAek20d4-42" value="" style="rounded=0;whiteSpace=wrap;html=1;fillColor=none;" parent="1" vertex="1">
          <mxGeometry x="290" y="230" width="510" height="470" as="geometry" />
        </mxCell>
        <mxCell id="CbRo_4syWJtFBAek20d4-43" value="&lt;b&gt;&lt;font style=&quot;font-size: 18px;&quot;&gt;FacultyHub&lt;/font&gt;&lt;/b&gt;" style="text;html=1;strokeColor=none;fillColor=none;align=center;verticalAlign=middle;whiteSpace=wrap;rounded=0;" parent="1" vertex="1">
          <mxGeometry x="670" y="260" width="110" height="40" as="geometry" />
        </mxCell>
      </root>
    </mxGraphModel>
  </diagram>
</mxfile>
